<svg width="16" height="16" xmlns="http://www.w3.org/2000/svg">

 <g>
  <title>Layer 1</title>
  <path fill="#6e6e6e" id="svg_1" d="m1.19,1.12411l2.992,2.167l0.014,0.01l8.486,6.145l0.014,0.01l2.994,2.168a0.75,0.75 0 1 1 -0.88,1.214l-1.81,-1.31l0,2.703a0.75,0.75 0 0 1 -1.206,0.596l-3.794,-2.902l-3.794,2.902a0.75,0.75 0 0 1 -1.206,-0.596l0,-9.945l-2.69,-1.948a0.75,0.75 0 1 1 0.88,-1.214zm3.31,4.247l0,7.341l3.044,-2.328a0.75,0.75 0 0 1 0.912,0l3.044,2.328l0,-2.271l-7,-5.07zm1.365,-4.39l5.385,0c0.966,0 1.75,0.784 1.75,1.75l0,3.624a0.75,0.75 0 0 1 -1.5,0l0,-3.624a0.25,0.25 0 0 0 -0.25,-0.25l-5.385,0a0.75,0.75 0 0 1 0,-1.5z"/>
 </g>
</svg>