<svg width="16" height="16" xmlns="http://www.w3.org/2000/svg" p-id="51197" version="1.1" class="icon" t="1766240797171">

 <g>
  <title>Layer 1</title>
  <path id="svg_1" p-id="51198" fill="#db5860" d="m14.40833,3.07281l-0.7057,0l0,11.29121c0,0.77952 -0.63189,1.41141 -1.41141,1.41141l-8.46841,0c-0.77952,0 -1.41141,-0.63189 -1.41141,-1.41141l0,-11.29121l-0.7057,0c-0.38976,0 -0.7057,-0.31594 -0.7057,-0.7057s0.31594,-0.7057 0.7057,-0.7057l4.2342,0c0,-0.77952 0.63189,-1.41141 1.41141,-1.41141l1.41141,0c0.77952,0 1.41141,0.63189 1.41141,1.41141l4.2342,0c0.38976,0 0.7057,0.31594 0.7057,0.7057s-0.31594,0.7057 -0.7057,0.7057zm-2.11711,0l-8.46841,0l0,11.29121l8.46841,0l0,-11.29121zm-5.64559,1.41141c0.38976,0 0.7057,0.31594 0.7057,0.7057l0,7.057c0,0.38976 -0.31594,0.7057 -0.7057,0.7057s-0.7057,-0.31594 -0.7057,-0.7057l0,-7.057c0,-0.38976 0.31594,-0.7057 0.7057,-0.7057zm2.8228,0c0.38976,0 0.7057,0.31594 0.7057,0.7057l0,7.057c0,0.38976 -0.31594,0.7057 -0.7057,0.7057s-0.7057,-0.31594 -0.7057,-0.7057l0,-7.057c0,-0.38976 0.31594,-0.7057 0.7057,-0.7057z"/>
 </g>
</svg>