<svg width="16" height="16" xmlns="http://www.w3.org/2000/svg" p-id="36398" version="1.1" class="icon" t="1766240478734">

 <g>
  <title>Layer 1</title>
  <path fill="#6e6e6e" id="svg_1" p-id="36399" d="m8.0002,1a7.0002,7.0002 0 1 0 7.0002,7.0002a7.0002,7.0002 0 0 0 -7.0002,-7.0002zm3.7483,3.61783l-1.83915,5.56834a0.38183,0.38183 0 0 1 -0.72548,-0.23864l1.52095,-4.6265l-5.74334,3.26783l2.30688,0.63637a0.38183,0.38183 0 0 1 0.21001,0.15273l1.73732,2.54553a0.38183,0.38183 0 1 1 -0.63637,0.43273l-1.65778,-2.41507l-3.05781,-0.86547a0.38183,0.38183 0 0 1 -0.08591,-0.70003l7.4043,-4.19375a0.38183,0.38183 0 0 1 0.55048,0.45183l0.01591,-0.0159z"/>
 </g>
</svg>