<svg width="16" height="16" xmlns="http://www.w3.org/2000/svg" version="1.1" viewbox="0 0 16 16">

 <g>
  <title>Layer 1</title>
  <path id="svg_1" fill="#389fd6" d="m7.97523,2.5c1.76197,0 3.26511,0.88232 4.38757,1.84824c1.12958,0.97037 1.94519,2.08572 2.34543,2.68876a1.44088,1.44088 0 0 1 0,1.5992c-0.40024,0.60304 -1.21585,1.71838 -2.34543,2.68876c-1.12335,0.96592 -2.62561,1.84824 -4.38757,1.84824c-1.76197,0 -3.26511,-0.88232 -4.38757,-1.84824c-1.12958,-0.97126 -1.94519,-2.08661 -2.34543,-2.68965a1.44088,1.44088 0 0 1 0,-1.5992c0.40024,-0.60215 1.21585,-1.7175 2.34543,-2.68787c1.12335,-0.96592 2.62561,-1.84824 4.38757,-1.84824zm-5.62211,5.27612a0.10673,0.10673 0 0 0 0,0.12096c0.36556,0.55323 1.10379,1.55651 2.1044,2.41659c1.00595,0.86542 2.20757,1.52538 3.51771,1.52538c1.31013,0 2.51265,-0.65996 3.51771,-1.52538c0.99972,-0.86008 1.73795,-1.86425 2.1044,-2.41659a0.10673,0.10673 0 0 0 0,-0.12096c-0.36645,-0.55234 -1.10468,-1.55651 -2.1044,-2.41659c-1.00595,-0.86542 -2.20757,-1.52538 -3.51771,-1.52538c-1.31013,0 -2.51265,0.65996 -3.51771,1.52538c-0.99972,0.86008 -1.73795,1.86425 -2.1044,2.41659zm5.62211,1.83935a1.77887,1.77887 0 1 1 -0.00089,-3.55684a1.77887,1.77887 0 0 1 0.00089,3.55684z"/>
 </g>
</svg>