<svg width="16" height="16" xmlns="http://www.w3.org/2000/svg">

 <g>
  <title>Layer 1</title>
  <path fill="#afb1b3" id="svg_1" d="m1.12403,2.76957a0.65218,0.65218 0 0 1 0.91044,-0.14522l12.60876,9.13048a0.65218,0.65218 0 1 1 -0.76522,1.05566l-1.95479,-1.41566c-1.0574,0.83566 -2.40871,1.54001 -3.96698,1.54001c-1.72262,0 -3.19132,-0.86261 -4.28959,-1.80697c-1.10435,-0.94783 -1.90175,-2.03914 -2.29306,-2.62784a1.40783,1.40783 0 0 1 0,-1.56262c0.30696,-0.46348 0.86522,-1.23479 1.62436,-2.00436l-1.7287,-1.25305a0.65218,0.65218 0 0 1 -0.14522,-0.91044zm1.33566,4.88872a0.10435,0.10435 0 0 0 -0.01913,0.05913c0,0.01826 0.00522,0.03913 0.01913,0.05913c0.35826,0.54 1.08001,1.52175 2.0574,2.36262c0.98261,0.84609 2.15827,1.49131 3.43915,1.49131c1.03914,0 2.00871,-0.42435 2.86088,-1.03566l-1.93653,-1.40349a1.73914,1.73914 0 0 1 -2.61306,-1.89131l-2.19914,-1.59305a12.35398,12.35398 0 0 0 -1.6087,1.95131zm5.49655,-3.85393c-0.4487,0 -0.88435,0.07826 -1.30348,0.21826a0.65218,0.65218 0 1 1 -0.41131,-1.2374a5.39742,5.39742 0 0 1 1.71479,-0.28522c1.72262,0 3.19132,0.86261 4.28959,1.80697c1.10435,0.9487 1.90175,2.03914 2.29306,2.62871a1.4087,1.4087 0 0 1 0,1.56349c-0.09565,0.14435 -0.21565,0.31739 -0.35652,0.51044a0.65218,0.65218 0 1 1 -1.05218,-0.77131c0.1287,-0.17478 0.23652,-0.33218 0.32261,-0.46087a0.10348,0.10348 0 0 0 0,-0.11913c-0.35826,-0.54 -1.08001,-1.52175 -2.0574,-2.36262c-0.98261,-0.84609 -2.15827,-1.49131 -3.43915,-1.49131z"/>
 </g>
</svg>