<svg width="16" height="16" xmlns="http://www.w3.org/2000/svg" version="1.1" viewbox="0 0 16 16">

 <g>
  <title>Layer 1</title>
  <path id="svg_1" fill="#3592c4" d="m13.3126,1l0.16282,0c0.84559,0 1.53187,0.68628 1.53187,1.53187l0,0.16282a7.66109,7.66109 0 0 1 -2.24441,5.41494l-0.40091,0.40179c-0.27486,0.27486 -0.5611,0.53922 -0.85697,0.79132l0,2.80726c0,0.53221 -0.27574,1.02591 -0.72917,1.30428l-2.42823,1.49423a0.65564,0.65564 0 0 1 -0.97164,-0.3659l-0.83509,-2.71535a1.06268,1.06268 0 0 1 -0.12693,-0.10942l-2.12623,-2.12536a1.06618,1.06618 0 0 1 -0.10854,-0.12693l-2.71535,-0.83509a0.65564,0.65564 0 0 1 -0.3659,-0.97164l1.49685,-2.42823a1.53012,1.53012 0 0 1 1.30428,-0.72917l2.80463,0c0.2521,-0.29587 0.51646,-0.58211 0.79132,-0.85697l0.40179,-0.40091a7.65847,7.65847 0 0 1 5.41581,-2.24353zm-4.48706,3.17141l-0.00175,0l-0.40091,0.40091c-0.66527,0.66527 -1.25788,1.39881 -1.76821,2.18838l-1.31303,2.02819l1.87588,1.87588l2.02819,-1.31303c0.78957,-0.51033 1.52312,-1.10295 2.18751,-1.76821l0.40179,-0.40091a6.34631,6.34631 0 0 0 1.85838,-4.48794l0,-0.16282a0.21884,0.21884 0 0 0 -0.21884,-0.21884l-0.16282,0a6.34544,6.34544 0 0 0 -4.48619,1.85838zm-4.70765,9.57374c-0.64076,0.64076 -2.04307,0.91474 -2.63044,1.00491a0.20483,0.20483 0 0 1 -0.17595,-0.05602a0.20483,0.20483 0 0 1 -0.05602,-0.17595c0.09016,-0.58736 0.36415,-1.98968 1.00666,-2.62869a1.31478,1.31478 0 1 1 1.85575,1.85575zm6.07495,-3.44452c-0.07703,0.05252 -0.15494,0.10329 -0.23284,0.15319l-2.05708,1.33141l0.47969,1.56076l1.70606,-1.05042a0.21884,0.21884 0 0 0 0.10417,-0.18645l0,-1.80848zm-5.97166,-2.19626l1.33229,-2.05708c0.05077,-0.07878 0.10242,-0.15581 0.15406,-0.23284l-1.80936,0a0.21884,0.21884 0 0 0 -0.18645,0.10417l-1.05042,1.70694l1.55988,0.47882zm7.28469,-2.7276a0.87535,0.87535 0 1 1 -1.75071,0a0.87535,0.87535 0 0 1 1.75071,0z"/>
 </g>
</svg>