<svg width="16" height="16" xmlns="http://www.w3.org/2000/svg">

 <g>
  <title>Layer 1</title>
  <path fill="#afb1b3" id="svg_1" d="m3.07915,3.04836l-0.00087,0a6.99334,6.99334 0 0 1 9.89033,9.89033a6.99509,6.99509 0 0 1 -11.73395,-3.11903a6.99334,6.99334 0 0 1 1.84449,-6.7713zm0.92662,8.96284a5.68209,5.68209 0 1 0 7.96192,-8.1079a5.68209,5.68209 0 0 0 -7.96192,8.1079zm2.29556,-6.6664l1.72211,1.72211l1.72211,-1.72211a0.65475,0.65475 0 0 1 1.11456,0.28498a0.65475,0.65475 0 0 1 -0.18795,0.64164l-1.72211,1.72211l1.72211,1.72211a0.65475,0.65475 0 0 1 -0.28498,1.11456a0.65475,0.65475 0 0 1 -0.64164,-0.18795l-1.72211,-1.72211l-1.72211,1.72211a0.65475,0.65475 0 0 1 -1.11456,-0.28498a0.65475,0.65475 0 0 1 0.18795,-0.64164l1.72211,-1.72211l-1.72211,-1.72211a0.6565,0.6565 0 0 1 0.01574,-0.91088a0.6565,0.6565 0 0 1 0.91088,-0.01574z"/>
 </g>
</svg>